<svg width="112" height="112" viewBox="0 0 112 112" fill="none" xmlns="http://www.w3.org/2000/svg">
<path d="M23.8455 8.42102L18.9175 13.342L26.25 20.671L31.171 15.75L23.8455 8.42102ZM88.158 8.42102L80.8255 15.75L85.75 20.671L93.079 13.3455L88.158 8.42102ZM56 10.605C54.845 10.619 53.676 10.6855 52.5 10.829C52.465 10.829 52.43 10.822 52.395 10.829C38.199 12.4565 26.901 23.926 24.9375 38.059C23.3695 49.434 28.0595 59.7485 35.875 66.3915C39.0719 69.1199 41.2343 72.8639 42 76.9965V97.9965H49.98C51.198 100.086 53.4205 101.497 56 101.497C58.5795 101.497 60.802 100.086 62.02 97.9965H70V83.9965H70.329V79.8385C70.329 74.7075 72.996 69.5345 77.329 65.513C83.125 59.71 87.5 51.4675 87.5 42C87.5 24.71 73.269 10.444 56 10.605ZM56 17.605C69.5275 17.416 80.5 28.49 80.5 42C80.5 49.329 77.105 55.783 72.4045 60.48L72.5165 60.592C67.8453 64.8995 64.8248 70.7028 63.9765 77H48.6675C47.8975 71.001 45.325 65.1945 40.4635 61.0295C34.279 55.7795 30.5935 47.8695 31.8255 38.9375C33.355 27.9125 42.301 19.047 53.263 17.8325C54.168 17.7063 55.0795 17.6316 55.993 17.6085L56 17.605ZM7 42V49H17.5V42H7ZM94.5 42V49H105V42H94.5ZM26.25 70.329L18.921 77.6545L23.8455 82.579L31.1675 75.25L26.25 70.329ZM85.75 70.329L80.829 75.25L88.1545 82.579L93.079 77.6545L85.75 70.329ZM49 84H63V91H49V84Z" fill="#DEFA39"/>
</svg>
